<svg width="208" height="30" viewBox="0 0 208 30" fill="none" xmlns="http://www.w3.org/2000/svg">
    <g clip-path="url(#clip0_1158_33591)">
        <path d="M1.83557 23.8284L2.54761 29.5723H27.4671L26.6518 22.9942H15.0326L14.9316 22.1778L25.6326 14.7711L24.9183 9.01501H-6.10352e-05L0.81515 15.5931H12.4535L12.5555 16.415L1.83557 23.8284Z" fill="#1A0826" />
        <path d="M27.8136 9.01501L30.3613 29.5723H55.2998L52.751 9.01501H27.8136Z" fill="#AA8FFF" />
        <path d="M81.4515 16.4173C80.8763 11.7964 77.2118 8.99616 72.2319 9.01616H55.6395L58.1883 29.5723H65.6496L65.1395 25.4624H73.037C79.2559 25.4613 82.103 21.6246 81.4515 16.4173ZM72.2342 19.6974L64.4296 19.7063L63.8174 14.7722L71.6668 14.7789C73.5114 14.8 74.4555 15.8297 74.608 17.2382C74.7022 18.1501 74.2839 19.6974 72.2353 19.6974H72.2342Z" fill="#1A0826" />
        <path d="M35.4389 6.37025C36.7611 4.97702 36.5427 2.64618 34.9513 1.1642C33.3598 -0.317783 30.9978 -0.389716 29.6757 1.00352C28.3535 2.39675 28.5719 4.72757 30.1633 6.20955C31.7548 7.69153 34.1168 7.76349 35.4389 6.37025Z" fill="#1A0826" />
        <path d="M92.8948 18.1579L94.292 29.4312H87.4855L84.9557 9.02063H91.2778L98.6898 16.6495L104.354 9.02063H110.447L112.977 29.4312H106.195L104.79 18.1013L99.7563 24.5927H99.2673L92.8948 18.1579Z" fill="#AA8FFF" />
        <path d="M123.204 29.7167C122.122 29.5386 121.061 29.2524 120.038 28.8625C118.086 28.1042 116.509 26.9367 115.308 25.3602C114.107 23.7836 113.355 21.7816 113.054 19.3542L113.047 19.2975C112.905 18.2486 112.909 17.1853 113.058 16.1373C113.192 15.2141 113.479 14.3192 113.908 13.4893C114.761 11.8764 116.074 10.6431 117.847 9.78924C119.619 8.93542 121.731 8.50813 124.182 8.50739C125.343 8.5031 126.501 8.60799 127.641 8.82064C128.708 9.01987 129.749 9.33501 130.746 9.76036C132.643 10.5644 134.302 11.8331 135.568 13.447C136.821 15.051 137.588 16.9916 137.87 19.2687L137.885 19.3797C138.032 20.466 138.038 21.5665 137.903 22.6543C137.783 23.5872 137.501 24.4926 137.07 25.3302C136.231 26.9053 134.93 28.0772 133.166 28.8458C131.403 29.6145 129.276 29.9988 126.786 29.9988C125.586 30.0041 124.388 29.9098 123.204 29.7167ZM129.744 22.8843C130.603 22.1637 130.931 20.987 130.728 19.3542C130.521 17.6836 129.895 16.4643 128.852 15.6964C127.81 14.9284 126.483 14.5441 124.873 14.5434C123.245 14.5434 122.011 14.937 121.172 15.7241C120.334 16.5113 120.013 17.7117 120.211 19.3253V19.3542C120.402 20.8915 121.009 22.0445 122.034 22.8132C123.058 23.5818 124.384 23.9662 126.013 23.9662C127.641 23.9662 128.884 23.6055 129.744 22.8843Z" fill="#AA8FFF" />
        <path d="M145.437 17.3037L146.941 29.4312H140.273L137.744 9.02063H144.472L155.808 20.7494L154.351 9.02063H160.989L163.52 29.4312H157.053L145.437 17.3037Z" fill="#AA8FFF" />
        <path d="M185.978 29.4312H165.659L163.129 9.02063H183.016L183.676 14.3435H170.399L170.735 17.0771H182.605L183.109 21.147H171.242L171.584 23.9084H185.293L185.978 29.4312Z" fill="#AA8FFF" />
        <path d="M194.461 29.4312L193.452 21.3225L183.392 9.02502H191.151L196.434 15.7141L200.261 9.02502H207.992L200.553 21.3547L201.556 29.439L194.461 29.4312Z" fill="#AA8FFF" />
    </g>
    <defs>
        <clipPath id="clip0_1158_33591">
            <rect width="208" height="30" fill="white" />
        </clipPath>
    </defs>
</svg>
    